<?xml version="1.0" encoding="UTF-8"?> <svg xmlns="http://www.w3.org/2000/svg" width="1601" height="457" viewBox="0 0 1601 457" fill="none"><g clip-path="url(#clip0_436_12120)"><path d="M456.184 228.13C456.28 273.281 443.029 317.42 418.02 355.006C393.011 392.591 357.45 421.937 315.768 439.284C274.087 456.631 228.213 461.257 183.929 452.487C139.646 443.766 98.928 422.082 66.9802 390.182C35.0325 358.331 13.2521 317.661 4.43395 273.426C-4.4324 229.142 0.0489614 183.268 17.2998 141.539C34.5506 99.8092 63.7999 64.151 101.289 39.094C138.827 13.9887 182.966 0.592826 228.116 0.592826C258.04 0.544639 287.675 6.37523 315.334 17.7955C342.994 29.2157 368.147 45.9365 389.301 67.0904C410.503 88.2444 427.32 113.301 438.789 140.961C450.257 168.572 456.184 198.206 456.184 228.13ZM254.282 79.619C245.753 78.7998 236.983 78.5107 228.068 78.5107C219.154 78.5107 210.577 78.848 201.999 79.619V200.953H254.282V79.619ZM374.989 150.309C355.908 144.045 336.44 139.178 316.684 135.66V237.478C316.684 310.819 285.507 349.416 228.165 349.416C170.823 349.416 139.646 310.819 139.646 237.478V135.708C119.889 139.226 100.422 144.141 81.3399 150.357V238.153C82.5927 276.269 98.6389 312.361 126.009 338.863C153.427 365.366 190.049 380.207 228.165 380.207C266.28 380.207 302.902 365.366 330.32 338.863C357.739 312.361 373.737 276.221 374.989 238.153V150.309Z" fill="#7000FF"></path><path d="M1193.49 235.792C1193.49 265.378 1176.77 279.015 1151.9 279.015C1127.04 279.015 1110.94 265.619 1110.94 235.792V138.166H1057.31V237.671C1057.31 302.53 1111.57 327.925 1152.34 327.925C1193.1 327.925 1247.41 302.53 1247.41 237.671V138.166H1193.78L1193.49 235.792Z" fill="#7000FF"></path><path d="M1011.92 183.461V138.118H837.581V183.461H940.748L833.389 279.16V324.504H1018.38V279.16H904.705L1011.92 183.461Z" fill="#7000FF"></path><path d="M1515.95 134.6C1481.93 134.6 1456.35 148.429 1443.67 169.487C1430.76 148.429 1402.62 134.6 1373.46 134.6C1316.12 134.6 1286.3 171.125 1286.3 216.276V324.504H1339.93V223.89C1339.93 202.302 1351.25 183.317 1377.27 183.317C1382.57 182.979 1387.87 183.799 1392.84 185.726C1397.8 187.605 1402.33 190.545 1406.04 194.303C1409.8 198.062 1412.69 202.591 1414.57 207.555C1416.45 212.518 1417.22 217.818 1416.88 223.167V324.552H1470.51V223.119C1470.51 201.483 1483.23 183.268 1509.01 183.268C1534.75 183.268 1547.18 202.254 1547.18 223.842V324.407H1600.81V216.373C1600.81 171.27 1573.1 134.696 1515.47 134.696L1515.95 134.6Z" fill="#7000FF"></path><path d="M744.436 235.792C744.436 265.378 727.763 279.015 703.044 279.015C678.372 279.015 661.892 265.619 661.892 235.792V138.166H608.26V237.671C608.26 302.53 662.326 327.925 703.285 327.925C744.243 327.925 798.164 302.53 798.164 237.671V138.166H744.532L744.436 235.792Z" fill="#7000FF"></path></g><defs><clipPath id="clip0_436_12120"><rect width="1600.81" height="456.183" fill="white" transform="translate(0 0.592712)"></rect></clipPath></defs></svg> 